<?xml version="1.0" encoding="UTF-8"?>
<svg width="24" height="24" viewBox="0 0 24 24" fill="none" xmlns="http://www.w3.org/2000/svg">
    <path d="M19 3H5C3.9 3 3 3.9 3 5V19C3 20.1 3.9 21 5 21H19C20.1 21 21 20.1 21 19V5C21 3.9 20.1 3 19 3ZM19 19H5V5H19V19Z" fill="#333333"/>
    <path d="M7 7H17V9H7V7Z" fill="#333333"/>
    <path d="M7 11H17V13H7V11Z" fill="#333333"/>
    <path d="M7 15H17V17H7V15Z" fill="#333333"/>
    <path d="M9 7L11 9L9 11" fill="#333333"/>
    <path d="M15 7L13 9L15 11" fill="#333333"/>
    <path d="M9 15L11 17L9 19" fill="#333333"/>
    <path d="M15 15L13 17L15 19" fill="#333333"/>
</svg> 